<?xml version="1.0" encoding="UTF-8" standalone="no"?>
<!DOCTYPE svg PUBLIC "-//W3C//DTD SVG 1.1//EN" "http://www.w3.org/Graphics/SVG/1.1/DTD/svg11.dtd">
<svg width="100%" height="100%" viewBox="0 0 150 150" version="1.1" xmlns="http://www.w3.org/2000/svg" xmlns:xlink="http://www.w3.org/1999/xlink" xml:space="preserve" xmlns:serif="http://www.serif.com/" style="fill-rule:evenodd;clip-rule:evenodd;stroke-linejoin:round;stroke-miterlimit:2;">
    <g transform="matrix(1,0,0,1,-503.826,-112.762)">
        <g transform="matrix(1,0,0,1,-318.981,-291.289)">
            <g transform="matrix(5,0,0,5,822.807,404.051)">
                <path d="M15,0C6.7,0 0,6.7 0,15C0,23.3 6.7,30 15,30C23.3,30 30,23.3 30,15C30,6.7 23.3,0 15,0ZM15,26C8.9,26 4,21.1 4,15C4,8.9 8.9,4 15,4C21.1,4 26,8.9 26,15C26,21.1 21.1,26 15,26ZM21.8,11.3C21.8,13 20.4,14.4 18.7,14.4C17,14.4 15.6,13 15.6,11.3C15.6,9.6 17,8.2 18.7,8.2C20.4,8.2 21.8,9.6 21.8,11.3ZM21.8,18.7C21.8,20.4 20.4,21.8 18.7,21.8C17,21.8 15.6,20.4 15.6,18.7C15.6,17 17,15.6 18.7,15.6C20.4,15.6 21.8,17 21.8,18.7ZM14.4,18.7C14.4,20.4 13,21.8 11.3,21.8C9.6,21.8 8.2,20.4 8.2,18.7C8.2,17 9.6,15.6 11.3,15.6C13,15.6 14.4,17 14.4,18.7ZM14.4,11.3C14.4,13 13,14.4 11.3,14.4C9.6,14.4 8.2,13 8.2,11.3C8.2,9.6 9.6,8.2 11.3,8.2C13,8.2 14.4,9.6 14.4,11.3Z" style="fill:rgb(242,47,70);fill-rule:nonzero;"/>
            </g>
        </g>
    </g>
</svg>
