<?xml version="1.0" encoding="UTF-8" standalone="no"?>
<!DOCTYPE svg PUBLIC "-//W3C//DTD SVG 1.1//EN" "http://www.w3.org/Graphics/SVG/1.1/DTD/svg11.dtd">
<svg width="100%" height="100%" viewBox="0 0 200 142" version="1.1" xmlns="http://www.w3.org/2000/svg" xmlns:xlink="http://www.w3.org/1999/xlink" xml:space="preserve" xmlns:serif="http://www.serif.com/" style="fill-rule:evenodd;clip-rule:evenodd;stroke-linejoin:round;stroke-miterlimit:2;">
    <g transform="matrix(1,0,0,1,-1054.76,-117.758)">
        <g transform="matrix(1,0,0,1,-145.733,-310.208)">
            <g transform="matrix(1,0,0,1,1473.41,436.752)">
                <g transform="matrix(11.1111,0,0,11.1111,-272.917,-37.8709)">
                    <path d="M18,11.38C17.956,9.404 16.452,7.742 14.49,7.5C14.372,4.729 12.013,2.536 9.24,2.62C7.026,2.572 5.008,3.93 4.22,6C1.857,6.287 0.047,8.29 0,10.67C0.102,13.351 2.389,15.475 5.07,15.38L13.72,15.38C13.793,15.39 13.867,15.39 13.94,15.38C16.137,15.359 17.947,13.576 18,11.38Z" style="fill:url(#_Linear1);fill-rule:nonzero;"/>
                </g>
                <g transform="matrix(11.1111,0,0,11.1111,-272.917,-37.8709)">
                    <path d="M5.42,10.39L4.54,10.39C4.426,9.897 3.984,9.545 3.478,9.545C2.88,9.545 2.388,10.037 2.388,10.635C2.388,11.233 2.88,11.725 3.478,11.725C3.984,11.725 4.426,11.373 4.54,10.88L5.42,10.88C5.53,10.88 5.62,10.97 5.62,11.08L5.62,15.38L6.11,15.38L6.11,11.08C6.11,10.701 5.799,10.39 5.42,10.39ZM3.47,11.27C3.119,11.27 2.83,10.981 2.83,10.63C2.83,10.279 3.119,9.99 3.47,9.99C3.821,9.99 4.11,10.279 4.11,10.63C4.11,10.981 3.821,11.27 3.47,11.27Z" style="fill:rgb(156,235,255);fill-rule:nonzero;"/>
                </g>
                <g transform="matrix(11.1111,0,0,11.1111,-272.917,-37.8709)">
                    <path d="M8.94,10.61L8.94,9.61C8.94,9.226 8.624,8.91 8.24,8.91L6.69,8.91C6.58,8.91 6.49,8.82 6.49,8.71L6.49,3.4L6.26,3.52L6,3.66L6,8.66C6,9.039 6.311,9.35 6.69,9.35L8.24,9.35C8.355,9.35 8.45,9.445 8.45,9.56L8.45,10.56C7.954,10.668 7.598,11.112 7.6,11.62L7.6,11.621C7.6,12.219 8.092,12.711 8.69,12.711C9.288,12.711 9.78,12.219 9.78,11.621C9.78,11.117 9.431,10.676 8.94,10.56L8.94,10.61ZM8.69,12.31C8.339,12.31 8.05,12.021 8.05,11.67C8.05,11.319 8.339,11.03 8.69,11.03C9.041,11.03 9.33,11.319 9.33,11.67C9.33,12.021 9.041,12.31 8.69,12.31Z" style="fill:rgb(242,242,242);fill-rule:nonzero;"/>
                </g>
                <g transform="matrix(11.1111,0,0,11.1111,-272.917,-37.8709)">
                    <path d="M14.53,8.5C13.934,8.502 13.444,8.994 13.444,9.59C13.444,10.092 13.791,10.533 14.28,10.65L14.28,10.85C14.28,10.965 14.185,11.06 14.07,11.06L12.07,11.06L12.07,7.54C12.07,7.161 11.759,6.85 11.38,6.85L10.35,6.85C10.242,6.354 9.798,5.998 9.29,6L9.289,6C8.691,6 8.199,6.492 8.199,7.09C8.199,7.688 8.691,8.18 9.289,8.18C9.793,8.18 10.234,7.831 10.35,7.34L11.42,7.34C11.53,7.34 11.62,7.43 11.62,7.54L11.62,15.38L12.11,15.38L12.11,11.55L14.11,11.55C14.494,11.55 14.81,11.234 14.81,10.85L14.81,10.65C15.304,10.538 15.658,10.097 15.66,9.59L15.66,9.589C15.66,8.991 15.168,8.499 14.57,8.499C14.557,8.499 14.543,8.5 14.53,8.5ZM9.29,7.73C8.939,7.73 8.65,7.441 8.65,7.09C8.65,6.739 8.939,6.45 9.29,6.45C9.641,6.45 9.93,6.739 9.93,7.09C9.93,7.441 9.641,7.73 9.29,7.73ZM14.53,10.23L14.52,10.23C14.169,10.23 13.88,9.941 13.88,9.59C13.88,9.239 14.169,8.95 14.52,8.95C14.871,8.95 15.16,9.239 15.16,9.59C15.16,9.937 14.877,10.225 14.53,10.23Z" style="fill:rgb(156,235,255);fill-rule:nonzero;"/>
                </g>
            </g>
        </g>
    </g>
    <defs>
        <linearGradient id="_Linear1" x1="0" y1="0" x2="1" y2="0" gradientUnits="userSpaceOnUse" gradientTransform="matrix(1.18913e-15,-19.42,19.42,1.18913e-15,9,19.13)"><stop offset="0" style="stop-color:rgb(0,120,212);stop-opacity:1"/><stop offset="0.16" style="stop-color:rgb(19,128,218);stop-opacity:1"/><stop offset="0.53" style="stop-color:rgb(60,145,229);stop-opacity:1"/><stop offset="0.82" style="stop-color:rgb(85,156,236);stop-opacity:1"/><stop offset="1" style="stop-color:rgb(94,160,239);stop-opacity:1"/></linearGradient>
    </defs>
</svg>
