<?xml version="1.0" encoding="UTF-8" standalone="no"?>
<!DOCTYPE svg PUBLIC "-//W3C//DTD SVG 1.1//EN" "http://www.w3.org/Graphics/SVG/1.1/DTD/svg11.dtd">
<svg width="100%" height="100%" viewBox="0 0 1295 385" version="1.1" xmlns="http://www.w3.org/2000/svg" xmlns:xlink="http://www.w3.org/1999/xlink" xml:space="preserve" xmlns:serif="http://www.serif.com/" style="fill-rule:evenodd;clip-rule:evenodd;stroke-linecap:round;stroke-linejoin:round;">
    <g transform="matrix(1,0,0,1,-106,-310.208)">
        <g transform="matrix(1,0,0,1,272.917,11.4035)">
            <g transform="matrix(-7.89811,7.92048,-7.92048,-7.89811,767.619,573.686)">
                <path d="M2.37,7.475L3.2,7.475C3.346,7.475 3.467,7.596 3.467,7.742L3.467,13.89C3.467,14.182 3.226,14.423 2.934,14.423L2.1,14.423L2.1,7.741C2.1,7.595 2.221,7.474 2.367,7.474L2.37,7.475Z" style="fill:rgb(80,230,255);fill-rule:nonzero;"/>
            </g>
            <g transform="matrix(7.92048,7.89811,-7.89811,7.92048,692.14,388.108)">
                <path d="M2.325,3.6L3.158,3.6C3.304,3.6 3.425,3.721 3.425,3.867L3.425,10.45L2.591,10.45C2.299,10.45 2.058,10.209 2.058,9.917L2.058,3.865C2.059,3.719 2.179,3.6 2.325,3.6Z" style="fill:rgb(20,144,223);fill-rule:nonzero;"/>
            </g>
            <g transform="matrix(7.89811,7.92048,-7.92048,7.89811,764.442,302.327)">
                <path d="M14.53,7.475L15.363,7.475C15.655,7.475 15.896,7.716 15.896,8.008L15.896,14.156C15.896,14.302 15.775,14.423 15.629,14.423L14.8,14.423C14.654,14.423 14.533,14.302 14.533,14.156L14.533,7.475L14.53,7.475Z" style="fill:rgb(80,230,255);fill-rule:nonzero;"/>
            </g>
            <g transform="matrix(-7.92048,7.89811,-7.89811,-7.92048,974.717,400.501)">
                <path d="M15.108,3.6L15.941,3.6L15.941,10.183C15.941,10.329 15.82,10.45 15.674,10.45L14.841,10.45C14.695,10.45 14.574,10.329 14.574,10.183L14.574,4.131C14.574,3.839 14.815,3.598 15.107,3.598L15.108,3.6Z" style="fill:rgb(20,144,223);fill-rule:nonzero;"/>
            </g>
            <g transform="matrix(11.1854,0,0,11.1854,627.723,386.833)">
                <path d="M8.459,9.9L4.87,9.9C4.766,9.904 4.676,9.823 4.67,9.719C4.67,9.693 4.676,9.667 4.688,9.644L8.991,1.13C9.028,1.063 9.1,1.022 9.177,1.024L13.422,1.024C13.526,1.02 13.616,1.101 13.622,1.205C13.622,1.241 13.609,1.276 13.587,1.305L8.534,7.966L13.462,7.966C13.566,7.962 13.656,8.043 13.662,8.147C13.661,8.193 13.643,8.237 13.61,8.269L5.421,16.788C5.344,16.834 4.797,17.288 5.065,16.599L8.459,9.9Z" style="fill:url(#_Linear1);fill-rule:nonzero;"/>
            </g>
        </g>
        <g transform="matrix(1,0,0,1,272.917,11.4035)">
            <g transform="matrix(1,0,0,1,1200.49,425.348)">
                <g transform="matrix(11.1111,0,0,11.1111,-272.917,-37.8709)">
                    <path d="M18,11.38C17.956,9.404 16.452,7.742 14.49,7.5C14.372,4.729 12.013,2.536 9.24,2.62C7.026,2.572 5.008,3.93 4.22,6C1.857,6.287 0.047,8.29 0,10.67C0.102,13.351 2.389,15.475 5.07,15.38L13.72,15.38C13.793,15.39 13.867,15.39 13.94,15.38C16.137,15.359 17.947,13.576 18,11.38Z" style="fill:url(#_Linear2);fill-rule:nonzero;"/>
                </g>
                <g transform="matrix(11.1111,0,0,11.1111,-272.917,-37.8709)">
                    <path d="M5.42,10.39L4.54,10.39C4.426,9.897 3.984,9.545 3.478,9.545C2.88,9.545 2.388,10.037 2.388,10.635C2.388,11.233 2.88,11.725 3.478,11.725C3.984,11.725 4.426,11.373 4.54,10.88L5.42,10.88C5.53,10.88 5.62,10.97 5.62,11.08L5.62,15.38L6.11,15.38L6.11,11.08C6.11,10.701 5.799,10.39 5.42,10.39ZM3.47,11.27C3.119,11.27 2.83,10.981 2.83,10.63C2.83,10.279 3.119,9.99 3.47,9.99C3.821,9.99 4.11,10.279 4.11,10.63C4.11,10.981 3.821,11.27 3.47,11.27Z" style="fill:rgb(156,235,255);fill-rule:nonzero;"/>
                </g>
                <g transform="matrix(11.1111,0,0,11.1111,-272.917,-37.8709)">
                    <path d="M8.94,10.61L8.94,9.61C8.94,9.226 8.624,8.91 8.24,8.91L6.69,8.91C6.58,8.91 6.49,8.82 6.49,8.71L6.49,3.4L6.26,3.52L6,3.66L6,8.66C6,9.039 6.311,9.35 6.69,9.35L8.24,9.35C8.355,9.35 8.45,9.445 8.45,9.56L8.45,10.56C7.954,10.668 7.598,11.112 7.6,11.62C7.6,11.62 7.6,11.621 7.6,11.621C7.6,12.219 8.092,12.711 8.69,12.711C9.288,12.711 9.78,12.219 9.78,11.621C9.78,11.117 9.431,10.676 8.94,10.56L8.94,10.61ZM8.69,12.31C8.339,12.31 8.05,12.021 8.05,11.67C8.05,11.319 8.339,11.03 8.69,11.03C9.041,11.03 9.33,11.319 9.33,11.67C9.33,12.021 9.041,12.31 8.69,12.31Z" style="fill:rgb(242,242,242);fill-rule:nonzero;"/>
                </g>
                <g transform="matrix(11.1111,0,0,11.1111,-272.917,-37.8709)">
                    <path d="M14.53,8.5C13.934,8.502 13.444,8.994 13.444,9.59C13.444,10.092 13.791,10.533 14.28,10.65L14.28,10.85C14.28,10.965 14.185,11.06 14.07,11.06L12.07,11.06L12.07,7.54C12.07,7.161 11.759,6.85 11.38,6.85L10.35,6.85C10.242,6.354 9.798,5.998 9.29,6C9.29,6 9.289,6 9.289,6C8.691,6 8.199,6.492 8.199,7.09C8.199,7.688 8.691,8.18 9.289,8.18C9.793,8.18 10.234,7.831 10.35,7.34L11.42,7.34C11.53,7.34 11.62,7.43 11.62,7.54L11.62,15.38L12.11,15.38L12.11,11.55L14.11,11.55C14.494,11.55 14.81,11.234 14.81,10.85L14.81,10.65C15.304,10.538 15.658,10.097 15.66,9.59C15.66,9.59 15.66,9.59 15.66,9.589C15.66,8.991 15.168,8.499 14.57,8.499C14.557,8.499 14.543,8.5 14.53,8.5ZM9.29,7.73C8.939,7.73 8.65,7.441 8.65,7.09C8.65,6.739 8.939,6.45 9.29,6.45C9.641,6.45 9.93,6.739 9.93,7.09C9.93,7.441 9.641,7.73 9.29,7.73ZM14.53,10.23C14.527,10.23 14.523,10.23 14.52,10.23C14.169,10.23 13.88,9.941 13.88,9.59C13.88,9.239 14.169,8.95 14.52,8.95C14.871,8.95 15.16,9.239 15.16,9.59C15.16,9.937 14.877,10.225 14.53,10.23Z" style="fill:rgb(156,235,255);fill-rule:nonzero;"/>
                </g>
            </g>
        </g>
        <g transform="matrix(1,0,0,1,272.917,11.4035)">
            <g transform="matrix(22.2222,0,0,22.2222,23.0942,150.702)">
                <g transform="matrix(1.03378,-0.991281,0.950528,0.991281,-10.3192,10.5)">
                    <path d="M10.5,10.5C10.638,7.265 9.299,5.641 8.583,4.899C7.855,4.145 6.323,2.794 3.133,3.133" style="fill:none;fill-rule:nonzero;stroke:rgb(17,17,17);stroke-width:0.26px;"/>
                </g>
                <g transform="matrix(0.297333,0.0399142,-0.0399142,0.297333,7.90366,6.95891)">
                    <path d="M4.595,10.084L10.5,10.5L9.41,4.646" style="fill:none;fill-rule:nonzero;stroke:rgb(17,17,17);stroke-width:0.96px;"/>
                </g>
            </g>
            <g transform="matrix(22.2222,0,0,22.2222,462.094,150.702)">
                <g transform="matrix(1.03378,-0.991281,0.950528,0.991281,-10.3192,10.5)">
                    <path d="M10.5,10.5C10.638,7.265 9.344,5.617 8.583,4.899C7.811,4.17 6.323,2.794 3.133,3.133" style="fill:none;fill-rule:nonzero;stroke:rgb(17,17,17);stroke-width:0.26px;"/>
                </g>
                <g transform="matrix(0.297333,0.0399142,-0.0399142,0.297333,7.90366,6.95891)">
                    <path d="M4.595,10.084L10.5,10.5L9.41,4.646" style="fill:none;fill-rule:nonzero;stroke:rgb(17,17,17);stroke-width:0.96px;"/>
                </g>
            </g>
            <g transform="matrix(22.2222,0,0,22.2222,847.594,150.702)">
                <g transform="matrix(1.03378,-0.991281,0.950528,0.991281,-10.3192,10.5)">
                    <path d="M9.327,9.148C9.268,5.772 8.785,5.347 7.991,4.477C7.382,3.808 6.323,2.794 3.133,3.133" style="fill:none;fill-rule:nonzero;stroke:rgb(17,17,17);stroke-width:0.26px;"/>
                </g>
                <g transform="matrix(0.297333,0.0399142,-0.0399142,0.297333,5.42866,6.91626)">
                    <path d="M4.595,10.084L10.5,10.5L9.41,4.646" style="fill:none;fill-rule:nonzero;stroke:rgb(17,17,17);stroke-width:0.96px;"/>
                </g>
            </g>
        </g>
        <g transform="matrix(1,0,0,1,272.917,11.4035)">
            <g transform="matrix(-1,-1.22465e-16,1.22465e-16,-1,981.315,981.692)">
                <g transform="matrix(22.2222,0,0,22.2222,23.0942,150.702)">
                    <g transform="matrix(1.03378,-0.991281,0.950528,0.991281,-10.3192,10.5)">
                        <path d="M10.5,10.5C10.638,7.265 9.299,5.641 8.583,4.899C7.855,4.145 6.323,2.794 3.133,3.133" style="fill:none;fill-rule:nonzero;stroke:rgb(17,17,17);stroke-width:0.26px;"/>
                    </g>
                    <g transform="matrix(0.297333,0.0399142,-0.0399142,0.297333,7.90366,6.95891)">
                        <path d="M4.595,10.084L10.5,10.5L9.41,4.646" style="fill:none;fill-rule:nonzero;stroke:rgb(17,17,17);stroke-width:0.96px;"/>
                    </g>
                </g>
                <g transform="matrix(22.2222,0,0,22.2222,462.094,150.702)">
                    <g transform="matrix(1.03378,-0.991281,0.950528,0.991281,-10.3192,10.5)">
                        <path d="M10.5,10.5C10.638,7.265 9.344,5.617 8.583,4.899C7.811,4.17 6.323,2.794 3.133,3.133" style="fill:none;fill-rule:nonzero;stroke:rgb(17,17,17);stroke-width:0.26px;"/>
                    </g>
                    <g transform="matrix(0.297333,0.0399142,-0.0399142,0.297333,7.90366,6.95891)">
                        <path d="M4.595,10.084L10.5,10.5L9.41,4.646" style="fill:none;fill-rule:nonzero;stroke:rgb(17,17,17);stroke-width:0.96px;"/>
                    </g>
                </g>
                <g transform="matrix(22.2222,0,0,22.2222,847.594,150.702)">
                    <g transform="matrix(1.03378,-0.991281,0.950528,0.991281,-10.3192,10.5)">
                        <path d="M9.327,9.148C9.268,5.772 8.785,5.347 7.991,4.477C7.382,3.808 6.323,2.794 3.133,3.133" style="fill:none;fill-rule:nonzero;stroke:rgb(17,17,17);stroke-width:0.26px;"/>
                    </g>
                    <g transform="matrix(0.297333,0.0399142,-0.0399142,0.297333,5.42866,6.91626)">
                        <path d="M4.595,10.084L10.5,10.5L9.41,4.646" style="fill:none;fill-rule:nonzero;stroke:rgb(17,17,17);stroke-width:0.96px;"/>
                    </g>
                </g>
            </g>
        </g>
        <g transform="matrix(1,0,0,1,272.917,11.4035)">
            <g transform="matrix(0.130844,0,0,0.130844,146.97,424.956)">
                <g transform="matrix(4.16667,0,0,4.16667,-272.917,-11.4035)">
                    <path d="M282.017,149.042C285.068,142.212 291.462,137.562 299.892,137.562C308.322,137.562 314.571,141.485 317.187,149.042L282.017,149.042ZM337.242,157.762C337.242,136.834 321.981,120.122 299.747,120.122C278.819,120.122 261.961,136.979 261.961,157.908C261.961,178.835 277.658,195.693 300.329,195.693C316.03,195.693 327.323,188.119 333.677,177.262L317.885,167.845C314.535,174.273 308.104,178.254 300.474,178.254C290.01,178.254 283.471,173.021 281.145,165.028L337.242,165.028L337.242,157.762ZM742.58,157.762C742.58,147.008 734.732,138.288 723.979,138.288C712.934,138.288 704.504,146.572 704.504,157.762C704.504,168.952 712.934,177.382 723.979,177.382C734.732,177.382 742.58,168.517 742.58,157.762ZM685.03,157.908C685.03,132.186 703.923,120.122 720.345,120.122C729.791,120.122 737.203,123.61 741.999,128.696L741.999,88.151L761.909,88.151L761.909,194.239L741.999,194.239L741.999,186.102C737.203,191.77 729.501,195.693 720.055,195.693C704.649,195.693 685.03,183.485 685.03,157.908ZM670.404,110.516C676.982,110.516 682.314,105.184 682.314,98.607C682.314,92.029 676.982,86.697 670.404,86.697C663.827,86.697 658.496,92.029 658.496,98.607C658.496,105.184 663.827,110.516 670.404,110.516ZM660.45,121.576L680.359,121.576L680.359,194.239L660.45,194.239L660.45,140.905L653.224,140.904L660.45,121.576ZM607.411,121.576L627.176,121.576L627.176,133.493C630.809,125.936 637.349,121.576 647.231,121.576L655.225,121.576L648.006,140.904L642.58,140.904C631.972,140.904 627.321,146.427 627.321,159.942L627.321,194.239L607.411,194.239L607.411,121.576ZM495.404,141.195C495.404,110.966 518.221,86.697 549.611,86.697C565.313,86.697 578.517,92.351 588.077,101.36C591.968,105.026 595.254,109.249 597.86,113.873L580.131,124.627C573.591,112.564 563.563,106.315 549.757,106.315C530.428,106.315 515.459,122.157 515.459,141.195C515.459,160.669 530.138,176.073 550.483,176.073C565.889,176.073 576.787,167.354 580.566,153.838L547.286,153.838L547.286,134.51L602.365,134.51L602.365,142.648C602.365,171.133 582.02,195.693 550.483,195.693C517.349,195.693 495.404,170.552 495.404,141.195ZM471.404,157.762C471.404,147.008 463.557,138.288 452.803,138.288C441.758,138.288 433.328,146.572 433.328,157.762C433.328,168.952 441.758,177.382 452.803,177.382C463.557,177.382 471.404,168.517 471.404,157.762ZM413.854,157.908C413.854,132.186 432.746,120.122 449.169,120.122C458.615,120.122 466.027,123.61 470.823,128.696L470.823,88.151L490.733,88.151L490.733,194.239L470.823,194.239L470.823,186.102C466.027,191.77 458.325,195.693 448.879,195.693C433.474,195.693 413.854,183.485 413.854,157.908ZM341.896,121.576L361.662,121.576L361.662,129.714C366.312,123.755 373.434,120.122 381.717,120.122C398.865,120.122 409.184,131.167 409.184,149.914L409.184,194.239L388.983,194.239L388.983,152.53C388.983,142.793 384.478,137.125 375.614,137.125C368.056,137.125 361.807,142.357 361.807,154.564L361.807,194.239L341.896,194.239L341.896,121.576ZM179.333,176.655L197.791,162.121C203.022,171.133 211.306,176.364 220.751,176.364C231.071,176.364 236.594,169.68 236.594,162.412C236.594,153.693 225.983,150.933 214.648,147.443C200.407,143.084 184.565,137.562 184.565,117.215C184.565,100.213 199.39,86.697 219.88,86.697C237.175,86.697 247.057,93.237 255.632,102.102L238.918,114.745C234.559,108.206 228.31,104.717 220.025,104.717C210.579,104.717 205.494,109.804 205.494,116.489C205.494,124.627 215.666,127.39 227.001,131.167C241.39,135.817 257.665,142.212 257.665,162.559C257.665,179.416 244.295,195.693 220.897,195.693C201.715,195.693 188.926,187.556 179.333,176.655Z" style="fill:rgb(36,55,70);fill-rule:nonzero;"/>
                </g>
                <g transform="matrix(4.16667,0,0,4.16667,-272.917,-11.4035)">
                    <rect x="70.647" y="151.805" width="42.434" height="42.434" style="fill:rgb(157,219,240);fill-rule:nonzero;"/>
                </g>
                <g transform="matrix(4.16667,0,0,4.16667,-272.917,-11.4035)">
                    <rect x="28.213" y="109.372" width="42.434" height="42.435" style="fill:rgb(157,219,240);fill-rule:nonzero;"/>
                </g>
                <g transform="matrix(4.16667,0,0,4.16667,-272.917,-11.4035)">
                    <rect x="28.213" y="151.805" width="42.434" height="42.434" style="fill:rgb(56,125,193);fill-rule:nonzero;"/>
                </g>
                <g transform="matrix(4.16667,0,0,4.16667,-272.917,-11.4035)">
                    <rect x="113.081" y="109.372" width="42.434" height="42.435" style="fill:rgb(0,179,228);fill-rule:nonzero;"/>
                </g>
                <g transform="matrix(4.16667,0,0,4.16667,-272.917,-11.4035)">
                    <rect x="70.647" y="66.939" width="42.434" height="42.434" style="fill:rgb(0,179,228);fill-rule:nonzero;"/>
                </g>
                <g transform="matrix(4.16667,0,0,4.16667,-272.917,-11.4035)">
                    <rect x="70.647" y="109.372" width="42.434" height="42.434" style="fill:rgb(16,156,217);fill-rule:nonzero;"/>
                </g>
                <g transform="matrix(4.16667,0,0,4.16667,-272.917,-11.4035)">
                    <rect x="113.081" y="66.939" width="42.434" height="42.434" style="fill:rgb(56,125,193);fill-rule:nonzero;"/>
                </g>
                <g transform="matrix(4.16667,0,0,4.16667,-272.917,-11.4035)">
                    <path d="M199.351,41.303L199.351,66.041L193.628,66.041L193.628,41.303L184.809,41.303L184.809,36.354L208.199,36.354L208.19,41.303L199.351,41.303Z" style="fill:rgb(36,55,70);fill-rule:nonzero;"/>
                </g>
                <g transform="matrix(4.16667,0,0,4.16667,-272.917,-11.4035)">
                    <path d="M249.913,66.041L244.492,66.041L237.909,44.443L231.327,66.041L225.949,66.041L217.652,36.216L223.658,36.298L229.175,57.308L235.371,36.354L241.093,36.354L247.289,57.308L252.71,36.354L258.432,36.354L249.913,66.041Z" style="fill:rgb(36,55,70);fill-rule:nonzero;"/>
                </g>
                <g transform="matrix(4.16667,0,0,4.16667,-272.917,-11.4035)">
                    <rect x="269.72" y="36.354" width="5.722" height="29.687" style="fill:rgb(36,55,70);fill-rule:nonzero;"/>
                </g>
                <g transform="matrix(4.16667,0,0,4.16667,-272.917,-11.4035)">
                    <path d="M288.699,66.041L288.699,36.354L294.422,36.354L294.422,61.008L304.317,61.008L304.367,66.041L288.699,66.041Z" style="fill:rgb(36,55,70);fill-rule:nonzero;"/>
                </g>
                <g transform="matrix(4.16667,0,0,4.16667,-272.917,-11.4035)">
                    <rect x="316.244" y="36.354" width="5.722" height="29.687" style="fill:rgb(36,55,70);fill-rule:nonzero;"/>
                </g>
                <g transform="matrix(4.16667,0,0,4.16667,-272.917,-11.4035)">
                    <path d="M348,40.529C342.923,40.529 339.869,44.703 339.869,51.2C339.869,57.696 342.923,61.869 348,61.869C353.12,61.869 356.175,57.696 356.175,51.2C356.175,44.703 353.078,40.529 348,40.529ZM347.958,66.602C339.524,66.602 334.062,60.405 334.062,51.241C334.062,42.034 339.567,35.796 348.043,35.796C356.563,35.796 361.939,41.99 361.939,51.155C361.939,60.318 356.477,66.602 347.958,66.602Z" style="fill:rgb(36,55,70);fill-rule:nonzero;"/>
                </g>
            </g>
        </g>
        <g transform="matrix(1,0,0,1,272.917,11.4035)">
            <g transform="matrix(4.16667,0,0,4.16667,970.236,434.081)">
                <g transform="matrix(1,0,0,1,-272.917,-11.4035)">
                    <rect x="5" y="9" width="38" height="29" style="fill:rgb(71,176,234);"/>
                </g>
                <g transform="matrix(1,0,0,1,-272.917,-11.4035)">
                    <path d="M40,6L8,6C5.806,6 4,7.806 4,10L4,35L44,35L44,10C44,7.806 42.194,6 40,6ZM6,32L6,10L42,10L42,32L6,32Z" style="fill:rgb(68,68,68);fill-rule:nonzero;"/>
                </g>
                <g transform="matrix(1,0,0,1,-272.917,-11.4035)">
                    <path d="M31,34L31,37L17,37L17,34L0,34C0,38.389 3.611,42 8,42L40,42C44.389,42 48,38.389 48,34L31,34Z" style="fill:rgb(230,230,230);fill-rule:nonzero;"/>
                </g>
                <g transform="matrix(1,0,0,1,-272.917,-11.4035)">
                    <path d="M16,34L32,34L32,36C32,36.549 31.549,37 31,37L17,37C16.451,37 16,36.549 16,36L16,34Z" style="fill:rgb(179,179,179);fill-rule:nonzero;"/>
                </g>
            </g>
        </g>
    </g>
    <defs>
        <linearGradient id="_Linear1" x1="0" y1="0" x2="1" y2="0" gradientUnits="userSpaceOnUse" gradientTransform="matrix(9.77192e-16,-15.9588,15.9588,9.77192e-16,9.12509,16.857)"><stop offset="0" style="stop-color:rgb(254,161,27);stop-opacity:1"/><stop offset="0.28" style="stop-color:rgb(254,165,26);stop-opacity:1"/><stop offset="0.55" style="stop-color:rgb(254,176,24);stop-opacity:1"/><stop offset="0.8" style="stop-color:rgb(255,195,20);stop-opacity:1"/><stop offset="1" style="stop-color:rgb(255,215,15);stop-opacity:1"/></linearGradient>
        <linearGradient id="_Linear2" x1="0" y1="0" x2="1" y2="0" gradientUnits="userSpaceOnUse" gradientTransform="matrix(1.18913e-15,-19.42,19.42,1.18913e-15,9,19.13)"><stop offset="0" style="stop-color:rgb(0,120,212);stop-opacity:1"/><stop offset="0.16" style="stop-color:rgb(19,128,218);stop-opacity:1"/><stop offset="0.53" style="stop-color:rgb(60,145,229);stop-opacity:1"/><stop offset="0.82" style="stop-color:rgb(85,156,236);stop-opacity:1"/><stop offset="1" style="stop-color:rgb(94,160,239);stop-opacity:1"/></linearGradient>
    </defs>
</svg>
